<svg width="60" height="60" viewBox="0 0 60 60" fill="none" xmlns="http://www.w3.org/2000/svg">
<g clip-path="url(#clip0_1_157)">
<circle cx="30" cy="30" r="30" fill="#8BCBB7"/>
<path d="M21.431 29.1783C21.2978 29.27 21.1888 29.3928 21.1136 29.536C21.0383 29.6792 20.999 29.8385 20.999 30.0003C20.999 30.1621 21.0383 30.3214 21.1136 30.4646C21.1888 30.6078 21.2978 30.7306 21.431 30.8223L34.431 39.8223C34.5809 39.9265 34.7566 39.9876 34.9388 39.9989C35.121 40.0103 35.3029 39.9715 35.4646 39.8868C35.6263 39.8021 35.7618 39.6746 35.8561 39.5183C35.9505 39.3621 36.0003 39.1829 36 39.0003L36 21.0003C35.9992 20.8181 35.9489 20.6396 35.8542 20.484C35.7596 20.3283 35.6244 20.2014 35.463 20.1169C35.3017 20.0323 35.1203 19.9934 34.9385 20.0042C34.7566 20.015 34.5812 20.0752 34.431 20.1783L21.431 29.1783Z" fill="#2D2D2D"/>
</g>
<defs>
<clipPath id="clip0_1_157">
<rect width="60" height="60" fill="white"/>
</clipPath>
</defs>
</svg>
